/* XPM */
static char *_cbb689421014748d9027b12b2486763[] = {
/* columns rows colors chars-per-pixel */
"16 16 47 1 ",
"  c #233B5F",
". c #243C62",
"X c #243C63",
"o c #243D65",
"O c #243E65",
"+ c #243E66",
"@ c #243E67",
"# c #243F68",
"$ c #243F69",
"% c #24406A",
"& c #24406B",
"* c #25406B",
"= c #25406C",
"- c #24416C",
"; c #25416C",
": c #25416D",
"> c #25426E",
", c #25426F",
"< c #254270",
"1 c #254370",
"2 c #254371",
"3 c #254372",
"4 c #254472",
"5 c #254473",
"6 c #254474",
"7 c #254574",
"8 c #254575",
"9 c #264576",
"0 c #264677",
"q c #264678",
"w c #264779",
"e c #26477A",
"r c #26477B",
"t c #26487A",
"y c #26487B",
"u c #26487C",
"i c #26487D",
"p c #26497D",
"a c #26497E",
"s c #26497F",
"d c #264A80",
"f c #264A81",
"g c #264A82",
"h c #274B82",
"j c #274B83",
"k c #274D86",
"l c None",
/* pixels */
"hpq0-llllllkjhpq",
"l02&llllllljhpil",
"l2-Ollllllhppqql",
"llOlhhpq0lppq0ll",
"llllhqq2lpq000ll",
"lllpy02-lpq02lll",
"lllq02$lqq02-lll",
"llll--+l0022llll",
"llll$Ol022--llll",
"lllll l92-&lllll",
"llllll5<-$$lllll",
"llllll-&$Ollllll",
"llllll&$OXllllll",
"lllllllOXlllllll",
"lllllllX lllllll",
"llllllllllllllll"
};
