/* XPM */
static char *e980cd24e30643a8f7c84e8c1a033f4f[] = {
/* columns rows colors chars-per-pixel */
"32 32 67 1 ",
"  c #23395B",
". c #233A5D",
"X c #233B5F",
"o c #233B60",
"O c #243B60",
"+ c #243C61",
"@ c #243C62",
"# c #243D62",
"$ c #243C63",
"% c #243D63",
"& c #243D64",
"* c #243D65",
"= c #243E65",
"- c #243E66",
"; c #243E67",
": c #243F67",
"> c #243F68",
", c #243F69",
"< c #244069",
"1 c #24406A",
"2 c #24406B",
"3 c #25406B",
"4 c #25416B",
"5 c #25406C",
"6 c #25416C",
"7 c #25416D",
"8 c #25426D",
"9 c #25426E",
"0 c #25426F",
"q c #25436F",
"w c #254270",
"e c #254370",
"r c #254371",
"t c #254372",
"y c #254472",
"u c #254473",
"i c #254474",
"p c #254574",
"a c #254475",
"s c #254575",
"d c #254576",
"f c #264577",
"g c #254677",
"h c #264676",
"j c #264677",
"k c #264678",
"l c #264679",
"z c #264779",
"x c #26477A",
"c c #26477B",
"v c #26487B",
"b c #26487C",
"n c #26487D",
"m c #26497D",
"M c #26497E",
"N c #26497F",
"B c #264A7F",
"V c #264A80",
"C c #264A81",
"Z c #274A81",
"A c #274B82",
"S c #274B83",
"D c #274C83",
"F c #274C84",
"G c #274C85",
"H c #274D86",
"J c None",
/* pixels */
"GABBkkfpe0JJJJJJJJJJJJJGGGABAbbb",
"JBBzkfpe00JJJJJJJJJJJJGGAAAAbbbJ",
"JBkffe002JJJJJJJJJJJJJSSABBbbbkJ",
"JJfpe00,,JJJJJJJJJJJJJSAABbbbkJJ",
"JJfee2<;JJJJJJJJJJJJJAAbBBBzkkJJ",
"JJJ00,;@JJGAABBzkfJJJABBkzkzkJJJ",
"JJJ2,-;JJGAABbzffpJJABBbBkfffJJJ",
"JJJJ-%XJJAABbkfppqJJBzbkkkffJJJJ",
"JJJJJoJJABkBkffpeJJBBBzkfffpJJJJ",
"JJJJJ JJABkffipq0JJBkzkfpfpJJJJJ",
"JJJJJJJBBzkfpe00JJBzkkfppu0JJJJJ",
"JJJJJJJBkfpfp022JJzzkfpuuuJJJJJJ",
"JJJJJJJzfppe022JJkzkfftue0JJJJJJ",
"JJJJJJJfpu000<-JJkfffet00JJJJJJJ",
"JJJJJJJJt00,<;JJfffppe000JJJJJJJ",
"JJJJJJJJ00,,;@JJfpppe000JJJJJJJJ",
"JJJJJJJJJ2--%JJfuuu00022JJJJJJJJ",
"JJJJJJJJJ,-%%Jfeuu00002JJJJJJJJJ",
"JJJJJJJJJJ%@JJppe00022,JJJJJJJJJ",
"JJJJJJJJJJ..Jfp0e00<2,JJJJJJJJJJ",
"JJJJJJJJJJJJJp000022<-JJJJJJJJJJ",
"JJJJJJJJJJJJpq002,<;-JJJJJJJJJJJ",
"JJJJJJJJJJJJq022<<,;-JJJJJJJJJJJ",
"JJJJJJJJJJJJ0022,,;;JJJJJJJJJJJJ",
"JJJJJJJJJJJJ0,22---%JJJJJJJJJJJJ",
"JJJJJJJJJJJJJ2----@JJJJJJJJJJJJJ",
"JJJJJJJJJJJJJ,--%@%JJJJJJJJJJJJJ",
"JJJJJJJJJJJJJJ-%@@JJJJJJJJJJJJJJ",
"JJJJJJJJJJJJJJ%@@.JJJJJJJJJJJJJJ",
"JJJJJJJJJJJJJJJ@.JJJJJJJJJJJJJJJ",
"JJJJJJJJJJJJJJJ@.JJJJJJJJJJJJJJJ",
"JJJJJJJJJJJJJJJJJJJJJJJJJJJJJJJJ"
};
