/* XPM */
static char *c648d1f52ed044ff83e4776c3b34790c[] = {
/* columns rows colors chars-per-pixel */
"64 64 75 1 ",
"  c #23395C",
". c #233A5C",
"X c #233A5D",
"o c #233A5E",
"O c #233B5E",
"+ c #233B5F",
"@ c #233B60",
"# c #243C60",
"$ c #243C61",
"% c #243C62",
"& c #243D62",
"* c #243C63",
"= c #243D63",
"- c #243D64",
"; c #243D65",
": c #243E65",
"> c #243E66",
", c #243E67",
"< c #243F67",
"1 c #243F68",
"2 c #243F69",
"3 c #243F6A",
"4 c #244069",
"5 c #24406A",
"6 c #24406B",
"7 c #25406B",
"8 c #25416B",
"9 c #25406C",
"0 c #25416C",
"q c #25416D",
"w c #25426D",
"e c #25416E",
"r c #25426E",
"t c #25426F",
"y c #254270",
"u c #254370",
"i c #254371",
"p c #254372",
"a c #254472",
"s c #254473",
"d c #254474",
"f c #254574",
"g c #254575",
"h c #254576",
"j c #264576",
"k c #264577",
"l c #264676",
"z c #264677",
"x c #264678",
"c c #264679",
"v c #264779",
"b c #26477A",
"n c #26477B",
"m c #26487A",
"M c #26487B",
"N c #26487C",
"B c #26487D",
"V c #26497D",
"C c #26487E",
"Z c #26497E",
"A c #26497F",
"S c #264A7F",
"D c #264A80",
"F c #264A81",
"G c #274A81",
"H c #274B81",
"J c #274A82",
"K c #274B82",
"L c #274B83",
"P c #274C84",
"I c #274C85",
"U c #274C86",
"Y c #274D86",
"T c #274D87",
"R c None",
/* pixels */
"YYLLLAAMMMMjMhhfss00RRRRRRRRRRRRRRRRRRRRRRRRRRTYPPPPHHFFFFFVVNNN",
"RLLAAAAMMMjjhfuf0ss0RRRRRRRRRRRRRRRRRRRRRRRRRRYPPPPPHHFFVVVVNNAR",
"RLAAAvAvvjjhhufts00RRRRRRRRRRRRRRRRRRRRRRRRRRPPPLLLLHAAAFVVNAMvR",
"RRAAAvvvjjhhuftt000RRRRRRRRRRRRRRRRRRRRRRRRRRYPPLLLDSSAAVVVVvvRR",
"RRAMMvvjjjssuuut0tRRRRRRRRRRRRRRRRRRRRRRRRRRYHLYLALAAAAMCAAvvvRR",
"RRRvvvjjusssutt330RRRRRRRRRRRRRRRRRRRRRRRRRRYLLHALAAAAAMvvvvvRRR",
"RRRvvjjsdus000634RRRRRRRRRRRRRRRRRRRRRRRRRRLLLHHAAAAMMMMMvvvvRRR",
"RRRRjjssuu0s0463-RRRRRRRRRRRRRRRRRRRRRRRRRRLLLSSLCAAAMAMCvvvRRRR",
"RRRRRsssuu0406<<-RRRRRRRRRRRRRRRRRRRRRRRRRLLHLAAAAAAAvvvvvvjRRRR",
"RRRRRs0stt466<<<RRRRRRRRRRRRRRRRRRRRRRRRRRLLSAAAAAvvvCvMvvvRRRRR",
"RRRRRRs030363-<%RRRRRRRRRRRRRRRRRRRRRRRRRHAAAAAAMMvAvvMjjjjRRRRR",
"RRRRRR043633---RRRRYYYLLALAAvAvvvvjjjRRRRHAAAAMAMMAvvvvjjjRRRRRR",
"RRRRRRRt44----=RRRYPYHAAAAMMvvvvjjjsRRRRLAAAAMMMMCvvvjjjjjRRRRRR",
"RRRRRRR03-3=--RRRRPLHHAAAAMMvvvvjjjsRRRRAAAAAMMMvvvvvjvhjRRRRRRR",
"RRRRRRRR--====RRRYHHLAAACAMMvvjhffuRRRRLAAAMMMMMvvvvjhjjfRRRRRRR",
"RRRRRRRR--==oRRRRYHLAAAAvvMjjhhhfuuRRRRAAAMMMMMMvjvjhhfjRRRRRRRR",
"RRRRRRRRR=#%oRRRLLASAAMMvvvjhhdussRRRRAAACCCvvvvvjjhjssjRRRRRRRR",
"RRRRRRRRR=ooRRRRLAAAAMMMvvjhhffus0RRRRAAvvvvvvvvjvhhsjsRRRRRRRRR",
"RRRRRRRRRRooRRRLAAAMMMMjjjjsuftu0RRRRACvCvvvvvjjhhhhsssRRRRRRRRR",
"RRRRRRRRRRoRRRRAAMMMMMzjhjssfttt0RRRRAAvCvvvvvjhhhdussRRRRRRRRRR",
"RRRRRRRRRRRRRRRAvAMMjzzjjdss0s00RRRRvAvCvvvvjvhfhduduuRRRRRRRRRR",
"RRRRRRRRRRRRRRACAMvMjzhjdss0ss00RRRRAvvvvjvjhhhhhudddRRRRRRRRRRR",
"RRRRRRRRRRRRRRCvvvjjhhffs00s000RRRRAAvvvvjjhhhhduudusRRRRRRRRRRR",
"RRRRRRRRRRRRRAvvvvjhfuffss00004RRRRvvvvvjjhhhdudhuuuRRRRRRRRRRRR",
"RRRRRRRRRRRRRMvvjjhhssss000006RRRRvvvvdvjjjhhuudss0sRRRRRRRRRRRR",
"RRRRRRRRRRRRRvvvjhffss000s4t0-RRRRvvvvvdjjhuufdu00sRRRRRRRRRRRRR",
"RRRRRRRRRRRRRRjjhhufs0s004364RRRRvvvvvddddssfuuus00RRRRRRRRRRRRR",
"RRRRRRRRRRRRRRhjhuuus00046633RRRRvvjjjjjssssuuuus0RRRRRRRRRRRRRR",
"RRRRRRRRRRRRRRRjuus00046444-RRRRvvjjdhfudsss0s0s00RRRRRRRRRRRRRR",
"RRRRRRRRRRRRRRRsuus0006344-4RRRRjjhhjhdd0ss0ss000RRRRRRRRRRRRRRR",
"RRRRRRRRRRRRRRRRutt03363---RRRRjvhhhhuuhss0s00s30RRRRRRRRRRRRRRR",
"RRRRRRRRRRRRRRRRut30t3<<3--RRRRvhhhddhuus0s0s000RRRRRRRRRRRRRRRR",
"RRRRRRRRRRRRRRRRR0444-3--=RRRRjdhfduhuuds0s00000RRRRRRRRRRRRRRRR",
"RRRRRRRRRRRRRRRRR04433--==RRRRjdffhuuuuu0s00004RRRRRRRRRRRRRRRRR",
"RRRRRRRRRRRRRRRRRR-3--==#RRRRjddufuduuut0000036RRRRRRRRRRRRRRRRR",
"RRRRRRRRRRRRRRRRRR44--===RRRRjsshuuuuttt0000t3RRRRRRRRRRRRRRRRRR",
"RRRRRRRRRRRRRRRRRRR-==#oRRRRdsss0ss0u000003644RRRRRRRRRRRRRRRRRR",
"RRRRRRRRRRRRRRRRRRR-==o%RRRRssssss0s3s0000664RRRRRRRRRRRRRRRRRRR",
"RRRRRRRRRRRRRRRRRRRR=ooRRRRjsssss3s0s30044434RRRRRRRRRRRRRRRRRRR",
"RRRRRRRRRRRRRRRRRRRR@ooRRRRsss0ss0003s334434RRRRRRRRRRRRRRRRRRRR",
"RRRRRRRRRRRRRRRRRRRRRoRRRRss0ss000s3030663<<RRRRRRRRRRRRRRRRRRRR",
"RRRRRRRRRRRRRRRRRRRRRoRRRRsss00s00000433<<-RRRRRRRRRRRRRRRRRRRRR",
"RRRRRRRRRRRRRRRRRRRRRRRRRs0s0s000003444-4--RRRRRRRRRRRRRRRRRRRRR",
"RRRRRRRRRRRRRRRRRRRRRRRRRsss000003034344-3RRRRRRRRRRRRRRRRRRRRRR",
"RRRRRRRRRRRRRRRRRRRRRRRR0s3000040343-44-3-RRRRRRRRRRRRRRRRRRRRRR",
"RRRRRRRRRRRRRRRRRRRRRRRRsss3000t4433-34--RRRRRRRRRRRRRRRRRRRRRRR",
"RRRRRRRRRRRRRRRRRRRRRRRR000000034-4434---RRRRRRRRRRRRRRRRRRRRRRR",
"RRRRRRRRRRRRRRRRRRRRRRRRs0003t44334-----RRRRRRRRRRRRRRRRRRRRRRRR",
"RRRRRRRRRRRRRRRRRRRRRRRRR0404434443----=RRRRRRRRRRRRRRRRRRRRRRRR",
"RRRRRRRRRRRRRRRRRRRRRRRRR00443-4------=RRRRRRRRRRRRRRRRRRRRRRRRR",
"RRRRRRRRRRRRRRRRRRRRRRRRRR3644433-----=RRRRRRRRRRRRRRRRRRRRRRRRR",
"RRRRRRRRRRRRRRRRRRRRRRRRRR63-4-----===RRRRRRRRRRRRRRRRRRRRRRRRRR",
"RRRRRRRRRRRRRRRRRRRRRRRRRRR43--4-===##RRRRRRRRRRRRRRRRRRRRRRRRRR",
"RRRRRRRRRRRRRRRRRRRRRRRRRRR-3-----===RRRRRRRRRRRRRRRRRRRRRRRRRRR",
"RRRRRRRRRRRRRRRRRRRRRRRRRRRR---=-#=#%RRRRRRRRRRRRRRRRRRRRRRRRRRR",
"RRRRRRRRRRRRRRRRRRRRRRRRRRRR----##=oRRRRRRRRRRRRRRRRRRRRRRRRRRRR",
"RRRRRRRRRRRRRRRRRRRRRRRRRRRRR-#=##ooRRRRRRRRRRRRRRRRRRRRRRRRRRRR",
"RRRRRRRRRRRRRRRRRRRRRRRRRRRRR##=%%%RRRRRRRRRRRRRRRRRRRRRRRRRRRRR",
"RRRRRRRRRRRRRRRRRRRRRRRRRRRRRR=ooooRRRRRRRRRRRRRRRRRRRRRRRRRRRRR",
"RRRRRRRRRRRRRRRRRRRRRRRRRRRRRR@OooRRRRRRRRRRRRRRRRRRRRRRRRRRRRRR",
"RRRRRRRRRRRRRRRRRRRRRRRRRRRRRRROooRRRRRRRRRRRRRRRRRRRRRRRRRRRRRR",
"RRRRRRRRRRRRRRRRRRRRRRRRRRRRRRRooRRRRRRRRRRRRRRRRRRRRRRRRRRRRRRR",
"RRRRRRRRRRRRRRRRRRRRRRRRRRRRRRRooRRRRRRRRRRRRRRRRRRRRRRRRRRRRRRR",
"RRRRRRRRRRRRRRRRRRRRRRRRRRRRRRRRRRRRRRRRRRRRRRRRRRRRRRRRRRRRRRRR"
};
